<svg xmlns="http://www.w3.org/2000/svg" viewBox="0 0 106 106"><defs><style>.cls-1{fill:#f4bf64;}.cls-2{fill:#ffc868;}.cls-3{fill:#ff8f59;}.cls-4{opacity:0.1;}.cls-5{fill:#171c1f;}.cls-6{opacity:0.25;}</style></defs><title>notes</title><g id="Notes"><g id="Fill_2" data-name="Fill 2"><rect class="cls-1" x="4" y="13" width="60" height="60"/></g><g id="Fill_1" data-name="Fill 1"><polygon class="cls-2" points="42 33 42 93 94 93 102 85 102 33 42 33"/></g><g id="Orange"><polygon class="cls-3" points="91 82 91 95 104 82 91 82"/></g><g id="Inner_Lines_3" data-name="Inner Lines 3" class="cls-4"><path class="cls-5" d="M30,27H16v2H30ZM16,33v2H38V33Zm0,8H38V39H16Zm0,6H38V45H16Zm0,6H38V51H16Zm0,6H38V57H16Z"/></g><g id="Inner_Lines_2" data-name="Inner Lines 2" class="cls-6"><path class="cls-5" d="M68,47H54v2H68ZM54,53v2H90V53Zm0,8H90V59H54Zm0,6H90V65H54Zm0,6H90V71H54Zm0,6H78V77H54Z"/></g><g id="Inner_Lines_1" data-name="Inner Lines 1"><polygon class="cls-5" points="103 81 90 81 90 94 92 94 92 83 103 83 103 81"/></g><g id="Shadows" class="cls-4"><path d="M64,29V25H42a8,8,0,0,0-8,8V71H4v2H38V33a4,4,0,0,1,4-4ZM88,79V91H42v2H90V81h12V79Z"/></g><g id="Outline"><path class="cls-5" d="M102,29H68V13a4,4,0,0,0-4-4H4a4,4,0,0,0-4,4V73a4,4,0,0,0,4,4H38V93a4,4,0,0,0,4,4H92a2,2,0,0,0,1.41-.59h0l12-12h0A2,2,0,0,0,106,83V33A4,4,0,0,0,102,29ZM38,33V73H4V13H64V29H42A4,4,0,0,0,38,33Zm4,0h60V82.17L91.17,93H42Z"/></g></g></svg>